<svg viewBox="0 0 262.73 38.99" xmlns="http://www.w3.org/2000/svg" id="Layer_2"><defs><style>.cls-1{fill:#fff;stroke-width:0px;}</style></defs><g id="Layer_1-2"><path d="M101.57,26.81c-1.23,0-1.63-.49-1.63-1.97-.05-.99-.05-1.97-.05-2.91-.05-3.11-.1-6.37.05-9.53.05-.89,0-1.83,0-2.71-.05-1.38-.1-2.81.1-4.2.05-.54.05-1.09.05-1.63v-.79c0-.59.3-.94.94-1.09.2,0,.44-.05.64-.05.54,0,1.14.15,1.53.25.39.15.54.39.54.84v2.17c.05,1.88.05,3.75.05,5.63.05,1.48,0,2.91,0,4.39-.05,1.53-.05,3.06-.05,4.59,0,2.47,1.04,3.6,3.36,3.6.15,0,.3,0,.44-.05h3.11c.64.05,1.33.3,1.28,1.78,0,1.09-.39,1.53-1.33,1.58-.69.05-1.33.05-2.02.05s-1.38,0-2.07-.05h-2.07c-.94,0-1.73,0-2.47.05-.15.05-.3.05-.39.05Z" class="cls-1"></path><path d="M126.15,27.16c-.39-.05-.74-.05-1.14-.1-.89-.05-1.83-.1-2.76-.1-.79,0-1.48.05-2.17.1-.3.05-.64.1-.99.1-.39,0-.79-.05-1.18-.05-.39-.05-.84-.05-1.23-.05h-.35c-.49,0-.84-.15-1.04-.39-.25-.3-.39-.74-.35-1.28.15-1.88.1-3.8.05-5.68-.05-1.33-.1-2.71-.05-4.1,0-.54,0-1.14.05-1.68.05-1.68.1-3.36,0-5.03-.1-1.09-.1-2.22-.1-3.31.05-.59.05-1.18.05-1.83-.05-.89.3-1.28,1.28-1.53.94-.25,1.93-.35,3.11-.35.99,0,1.97.05,2.91.15.35,0,.74.05,1.09.05.59.05,1.23.1,1.83.1.49,0,.99-.05,1.43-.05.15-.05.3-.05.44-.05.69,0,.99.25,1.14.79.3,1.68-.15,2.12-.94,2.27l-.15.05c-.84.2-1.73.35-2.62.35-.39,0-.79,0-1.14-.1-.3-.05-.59-.1-.89-.1-.79,0-1.58.2-2.27.39-.84.25-1.33.94-1.38,1.92v1.28l-.05.25v.69c.05,2.76.94,3.6,3.85,3.6h1.48c.49,0,1.18,0,1.83.15.59.1.79.35.84.94.1.89,0,1.43-.25,1.78-.25.25-.69.39-1.38.39h-.74c-.59,0-1.18.05-1.73.1-.59.1-1.14.15-1.73.15h-.25c-.59,0-.94.39-1.14.69-1.18,1.38-1.18,3.46-.05,4.89.2.3.54.69.99.74.59,0,1.18.1,1.78.25.64.1,1.28.25,1.97.25.39,0,.74-.05,1.09-.15.2-.05.49-.05.79-.05s.64,0,.94.05h.49c.15,0,.3.15.35.2.44.79.49,1.73.1,2.52-.25.54-.74.79-1.58.79h-.25Z" class="cls-1"></path><path d="M133.01,27.01c-.39,0-.79-.1-1.09-.3-.64-.35-.79-.69-.64-1.33.15-.74.39-1.48.59-2.17.3-.94.59-1.92.79-2.91.44-2.37,1.04-4.69,1.63-6.96.2-.84.44-1.68.64-2.52l.74-2.76c.39-1.48.84-2.96,1.14-4.49.1-.54.39-.89.89-1.09.74-.3,1.48-.44,2.22-.44.3,0,.59,0,.89.05.84.15,1.33.54,1.53,1.28.89,3.21,1.93,6.96,2.81,10.66v.15c.49,2.02.99,4.15,1.63,6.22.44,1.38.79,2.91,1.09,4.74.15.74.1,1.18-.1,1.43s-.69.35-1.63.35h-.3c-.84,0-1.43-.39-1.83-1.33-.69-1.68-2.67-2.86-4.79-2.86-1.09,0-2.07.3-2.86.89-.54.44-.79.99-.99,1.58-.1.25-.2.44-.35.69-.39.69-1.18,1.14-2.02,1.14ZM139.72,11.12c-.59,0-1.09.39-1.38,1.14-.64,1.58-.99,2.91-.99,4.24-.05,1.92.2,2.57,1.83,2.81h.35c.84,0,1.88-.44,2.32-1.09.25-.3.35-.59.25-.89-.15-.59-.25-1.18-.35-1.73-.2-1.09-.44-2.17-.84-3.21l-.05-.25c-.15-.39-.35-.99-1.04-1.04h-.1Z" class="cls-1"></path><path d="M155.83,27.06c-.79-.05-1.33-.2-1.63-.54-.2-.3-.3-.74-.15-1.38.25-1.23.15-2.47.1-3.65-.05-.64-.05-1.33-.05-1.97v-1.23c.05-1.43.05-2.86.05-4.34,0-1.18-.1-2.42-.2-3.55l-.05-.54v-.2c0-.2-.05-.35,0-.54.15-.99,0-1.83-.44-2.42-.44-.64-1.23-1.04-2.27-1.18-.94-.15-1.48-.35-1.78-.74-.25-.39-.25-.94-.1-1.83.15-.54.49-.89,1.09-.89.54.05,1.04.05,1.53.1,1.09.05,2.22.1,3.36.1s2.22-.05,3.16-.2c.25-.05.49-.05.79-.05.79,0,1.68.15,2.76.44.89.25.89,1.04.74,2.12-.05.69-.39.99-1.33,1.04-1.88.05-3.65.54-3.6,3.6.1,4.44.1,8.98.05,13.33v2.62c0,1.38-.54,1.92-2.02,1.92Z" class="cls-1"></path><path d="M167.84,27.06c-.84,0-1.18-.25-1.48-.99-.35-.99-.3-1.97-.3-3.01l.05-.44v-1.48c0-.94,0-1.88.05-2.81.05-1.88.05-3.8,0-5.63v-2.81c0-.64.05-1.33.1-1.92.1-1.38.2-2.81-.15-4.2-.1-.44-.05-.84.15-1.09.25-.39.84-.64,1.73-.74h.15c1.04,0,1.97.89,1.97,1.88.05.54,0,1.09-.05,1.68-.05.39-.1.79-.1,1.18-.05.69,0,1.38,0,2.07.05.89.1,1.73,0,2.62,0,.44.15.89.54,1.33.59.69,1.48,1.09,2.37,1.14h.39c1.43,0,2.52-.15,3.55-.39.84-.25,1.38-.84,1.43-1.63v-.39c.15-2.57.25-5.23.25-7.85.05-1.14.39-1.63,1.28-1.63.15,0,.25,0,.39.05q1.88.2,1.97,2.17v1.14c.1,2.86.05,5.73,0,8.54-.05,2.71-.05,5.53,0,8.29.05.39.1.74.1,1.14.15.84.25,1.63-.05,2.42-.3.84-1.04,1.38-1.88,1.38-.2,0-.39-.05-.59-.1-.99-.3-1.38-.99-1.18-2.22.1-.79.1-1.63.05-2.42,0-.3-.05-.59-.05-.94,0-.2,0-.39-.05-.59v-.44c-.15-2.02-1.38-3.31-3.31-3.31-.3,0-.64.05-.99.1s-.64.15-.94.15c-.1,0-.15-.05-.25-.05h-.39c-1.53,0-2.67,1.04-2.67,2.57-.05,2.07-.1,3.9,0,5.77.05.94-.3,1.28-1.33,1.43-.3.05-.59.05-.79.05Z" class="cls-1"></path><path d="M199.07,27.16c-.39-.05-.74-.05-1.14-.1-.89-.05-1.83-.1-2.76-.1-.79,0-1.48.05-2.17.1-.3.05-.64.1-.99.1-.39,0-.79-.05-1.18-.05-.39-.05-.84-.05-1.23-.05h-.35c-.49,0-.84-.15-1.04-.39-.25-.3-.39-.74-.35-1.28.15-1.88.1-3.8.05-5.68-.05-1.33-.1-2.71-.05-4.1,0-.54,0-1.14.05-1.68.05-1.68.1-3.36,0-5.03-.1-1.09-.1-2.22-.1-3.31.05-.59.05-1.18.05-1.83-.05-.89.3-1.28,1.28-1.53.94-.25,1.93-.35,3.11-.35.99,0,1.97.05,2.91.15.35,0,.74.05,1.09.05.59.05,1.23.1,1.83.1.49,0,.99-.05,1.43-.05.15-.05.3-.05.44-.05.69,0,.99.25,1.14.79.3,1.68-.15,2.12-.94,2.27l-.15.05c-.84.2-1.73.35-2.62.35-.39,0-.79,0-1.14-.1-.3-.05-.59-.1-.89-.1-.79,0-1.58.2-2.27.39-.84.25-1.33.94-1.38,1.92v1.28l-.05.25v.69c.05,2.76.94,3.6,3.85,3.6h1.48c.49,0,1.18,0,1.83.15.59.1.79.35.84.94.1.89,0,1.43-.25,1.78-.25.25-.69.39-1.38.39h-.74c-.59,0-1.18.05-1.73.1-.59.1-1.14.15-1.73.15h-.25c-.59,0-.94.39-1.14.69-1.18,1.38-1.18,3.46-.05,4.89.2.3.54.69.99.74.59,0,1.18.1,1.78.25.64.1,1.28.25,1.97.25.39,0,.74-.05,1.09-.15.2-.05.49-.05.79-.05s.64,0,.94.05h.49c.15,0,.3.15.35.2.44.79.49,1.73.1,2.52-.25.54-.74.79-1.58.79h-.25Z" class="cls-1"></path><path d="M221.74,27.41c-2.81,0-3.85-.39-5.82-2.07-1.23-1.09-2.62-2.37-3.6-4.05l-.05-.1c-.25-.39-.49-.89-1.23-.89s-1.23.35-1.58,1.09c-.49,1.04-.64,2.22-.44,3.36.2.94-.05,1.63-.74,2.17-.1.05-.44.15-.99.15-.89,0-1.68-.2-1.88-.35-.3-.3-.44-.69-.3-1.09.3-.94.2-1.88.15-2.76-.1-.59-.15-1.14-.1-1.68.1-1.33.1-2.67.1-4-.05-.79-.05-1.58,0-2.37,0-1.18-.05-2.37-.05-3.5-.05-.94-.1-1.88-.1-2.81V3.67c0-.74.39-1.14,1.23-1.28.94-.15,1.73-.2,2.52-.2.89,0,1.73.1,2.52.3.3.05.54.1.89.1.25,0,.44,0,.69-.05h.79c1.53.05,2.76.79,4.1,1.88,1.88,1.63,2.71,3.7,2.62,6.61.3,1.83-.49,3.36-1.38,4.94-.2.35-.39.69-.59,1.09-.15.3-.54.54-.89.84-.15.1-.3.15-.39.25-.94.74-1.33,1.23-1.33,1.83-.05.54.3,1.09,1.04,1.83,1.97,1.88,2.76,2.42,5.03,2.57,1.93.15,1.97.15,2.27,1.78.05.35,0,.64-.1.84-.15.2-.39.35-.79.35-.54.05-1.09.1-1.58.1ZM211.82,5.54c-.3,0-.54.05-.79.15-1.04.3-2.22,1.18-2.12,3.65.05.94.1,1.88.2,2.86,0,.39.05.84.1,1.28,0,1.58.25,2.52,1.73,2.76.35.1.69.1.99.1,1.09,0,1.97-.3,2.76-.94,1.48-1.33,2.22-3.11,1.97-4.94-.2-1.88-1.38-3.55-3.11-4.44-.64-.3-1.23-.49-1.73-.49Z" class="cls-1"></path><path d="M244.52,26.82c-.29,0-.54-.05-.83-.05-4.01-.29-6.41-1.86-7.44-4.84-.73-2.15-1.13-4.35-1.22-6.46-.15-2.4.1-4.84.73-7.44.78-3.23,3.57-5.67,6.65-5.82.39-.05.78-.05,1.17-.05,2.06,0,4.4.29,6.21,2.4,1.03,1.22,1.03,1.81,0,2.74-.49.44-1.03.68-1.57.68-.59,0-1.12-.24-1.52-.78-.15-.1-.2-.24-.29-.34-.24-.34-.49-.64-.88-.88-.49-.29-1.08-.49-1.71-.49-1.42,0-2.84.78-3.52,1.96-1.76,2.89-2.25,6.16-1.57,10.32.25,1.32.83,2.59,1.32,3.72.59,1.22,1.81,1.96,3.28,1.96,1.08,0,2.15-.44,2.89-1.22s1.27-1.08,1.86-1.08c.49,0,1.03.24,1.71.83.34.24.49.54.54.88.05.34-.1.73-.34,1.03-1.76,2.01-3.47,2.94-5.48,2.94Z" class="cls-1"></path><path d="M256.17,17.75c-.8,0-1.58-.47-2.33-.94-.14-.11-.25-.22-.33-.33-.69-1.08-1.36-2.27-1.33-3.65.03-.39.03-.72-.11-1.02-.19-.41-.11-.8-.06-1.22.06-.22.08-.44.08-.66.03-1.47.19-3.35,1.55-4.84.28-.33.5-.53.89-.61.28-.06.58-.14.86-.25.47-.17.94-.33,1.47-.33h.14c1.69.08,3.02.89,3.63,2.16,1.3,2.8,1.41,5.78.3,8.94-.64,1.88-1.8,2.74-3.71,2.74-.17,0-.33,0-.5-.03-.22.06-.39.06-.55.06ZM256.81,5.82c-.75,0-1.44.42-1.83,1.08-.78,1.3-.91,2.66-.89,4.4-.19,1.38.25,2.8,1.19,3.96.36.44.83.69,1.36.69,1.16,0,2.46-1.16,2.63-2.33.06-.22.08-.44.11-.66.17-.89.3-1.8.19-2.71-.14-1.19-.28-2.41-1.11-3.57-.39-.55-1-.86-1.66-.86Z" class="cls-1"></path><path d="M253.42,21.78c.04-1.44.3-1.6.51-1.55.42-.31.83-.3,1.27-.24.19.05.4.06.59.06l.21-.03c.71-.01,1.45-.03,2.18.13.62.19,1.36.3,2.07.04.18-.03.39.14.55.47.12.25.19.58.2.92v.16c0,.95-.29,1.64-.68,1.62-.61-.02-1.23-.05-1.85-.07l-2.98-.12c-.16,0-.33.03-.49.02-.37.03-.77.01-1.15-.09-.31-.05-.44-.43-.44-1.21v-.12Z" class="cls-1"></path><path d="M257.21,17.68c-.8,0-1.58-.47-2.33-.94-.14-.11-.25-.22-.33-.33-.69-1.08-1.36-2.27-1.33-3.65.03-.39.03-.72-.11-1.02-.19-.41-.11-.8-.06-1.22.06-.22.08-.44.08-.66.03-1.47.19-3.35,1.55-4.84.28-.33.5-.53.89-.61.28-.06.58-.14.86-.25.47-.17.94-.33,1.47-.33h.14c1.69.08,3.02.89,3.63,2.16,1.3,2.8,1.41,5.78.3,8.94-.64,1.88-1.8,2.74-3.71,2.74-.17,0-.33,0-.5-.03-.22.06-.39.06-.55.06ZM257.85,5.75c-.75,0-1.44.42-1.83,1.08-.78,1.3-.91,2.66-.89,4.4-.19,1.38.25,2.8,1.19,3.96.36.44.83.69,1.36.69,1.16,0,2.46-1.16,2.63-2.33.06-.22.08-.44.11-.66.17-.89.3-1.8.19-2.71-.14-1.19-.28-2.41-1.11-3.57-.39-.55-1-.86-1.66-.86Z" class="cls-1"></path><path d="M26.98,26.72c-1.43,0-2.81-.84-4.15-1.68-.25-.2-.44-.39-.59-.59-1.23-1.92-2.42-4.05-2.37-6.52.05-.69.05-1.28-.2-1.83-.35-.74-.2-1.43-.1-2.17.1-.39.15-.79.15-1.18.05-2.62.35-5.97,2.76-8.64.49-.59.89-.94,1.58-1.09.49-.1,1.04-.25,1.53-.44.84-.3,1.68-.59,2.62-.59h.25c3.01.15,5.38,1.58,6.47,3.85,2.32,4.99,2.52,10.32.54,15.94-1.14,3.36-3.21,4.89-6.61,4.89-.3,0-.59,0-.89-.05-.39.1-.69.1-.99.1ZM28.11,5.44c-1.33,0-2.57.74-3.26,1.92-1.38,2.32-1.63,4.74-1.58,7.85-.35,2.47.44,4.99,2.12,7.06.64.79,1.48,1.23,2.42,1.23,2.07,0,4.39-2.07,4.69-4.15.1-.39.15-.79.2-1.18.3-1.58.54-3.21.35-4.84-.25-2.12-.49-4.29-1.97-6.37-.69-.99-1.78-1.53-2.96-1.53Z" class="cls-1"></path><path d="M42.98,26.81c-1.23,0-1.63-.49-1.63-1.97-.05-.99-.05-1.97-.05-2.91-.05-3.11-.1-6.37.05-9.53.05-.89,0-1.83,0-2.71-.05-1.38-.1-2.81.1-4.2.05-.54.05-1.09.05-1.63v-.79c0-.59.3-.94.94-1.09.2,0,.44-.05.64-.05.54,0,1.14.15,1.53.25.39.15.54.39.54.84v2.17c.05,1.88.05,3.75.05,5.63.05,1.48,0,2.91,0,4.39-.05,1.53-.05,3.06-.05,4.59,0,2.47,1.04,3.6,3.36,3.6.15,0,.3,0,.44-.05h3.11c.64.05,1.33.3,1.28,1.78,0,1.09-.39,1.53-1.33,1.58-.69.05-1.33.05-2.02.05s-1.38,0-2.07-.05h-2.07c-.94,0-1.73,0-2.47.05-.15.05-.3.05-.39.05Z" class="cls-1"></path><path d="M59.96,27.06c-.79-.05-1.33-.2-1.63-.54-.2-.3-.3-.74-.15-1.38.25-1.23.15-2.47.1-3.65-.05-.64-.05-1.33-.05-1.97v-1.23c.05-1.43.05-2.86.05-4.34,0-1.18-.1-2.42-.2-3.55l-.05-.54v-.2c0-.2-.05-.35,0-.54.15-.99,0-1.83-.44-2.42-.44-.64-1.23-1.04-2.27-1.18-.94-.15-1.48-.35-1.78-.74-.25-.39-.25-.94-.1-1.83.15-.54.49-.89,1.09-.89.54.05,1.04.05,1.53.1,1.09.05,2.22.1,3.36.1s2.22-.05,3.16-.2c.25-.05.49-.05.79-.05.79,0,1.68.15,2.76.44.89.25.89,1.04.74,2.12-.05.69-.39.99-1.33,1.04-1.88.05-3.65.54-3.6,3.6.1,4.44.1,8.98.05,13.33v2.62c0,1.38-.54,1.92-2.02,1.92Z" class="cls-1"></path><path d="M70.72,27.41c-.35,0-.74-.1-.94-.35-.2-.3-.2-.69,0-1.28.39-1.18.99-2.42,1.53-3.55.39-.74.74-1.43,1.04-2.17.74-1.73,1.58-3.41,2.37-5.08,1.09-2.17,2.22-4.44,3.11-6.76.3-.79.35-1.38.1-1.73s-.64-.54-1.28-.54c-.15,0-.35.05-.59.05-.84.1-1.58.2-2.37.2-.74,0-1.38-.1-2.02-.25-1.38-.39-1.78-.99-1.53-2.32.1-.44.35-.94.99-.99.79,0,1.53-.05,2.27-.05,1.09-.05,2.17-.1,3.21-.1.54,0,1.09,0,1.68.05,1.09.05,2.17.05,3.21.05.64,0,1.23,0,1.83.05.49,0,.79.05.94.25.1.15.05.44-.1.89-.74,2.32-1.83,4.39-2.76,6.17-.49.94-.94,1.97-1.33,2.96-.3.69-.64,1.48-.99,2.17l-1.04,2.22c-.59,1.28-1.18,2.62-1.93,3.9-.05.1-.1.2-.15.25-.3.44-.59.94-.3,1.58s.89.69,1.38.74c.15,0,.3.05.39.05h.15c.1,0,.2,0,.35-.05.05,0,.15-.05.25-.05.35,0,.79.05,1.23.05,1.09.05,2.17.1,3.31.25.79.05,1.23.44,1.09,2.07-.05.84-.39,1.18-1.28,1.18-.74.05-1.48.05-2.27.05h-2.76c-.94-.05-1.88-.05-2.81-.05-1.43,0-2.62.05-3.7.15h-.25Z" class="cls-1"></path><path d="M14.53,1.59c.27.88.18,1.76.09,2.69-.04.44-.09.82-.09,1.21-.09,3.13-.04,6.26,0,9.28,0,2.14.04,4.34,0,6.54.22,1.1.49,2.14.8,3.19.18.77.4,1.54.53,2.31,1.34,3.73,5.16,7.47,7.57,8.07,2,.49,2.05.55,2.14,2.69,0,.49-.04.88-.22,1.1-.18.22-.49.33-.89.33l-1.65-.16c-2.98-.55-5.12-2.31-7.21-4.56-3.03-3.35-2.85-5.44-3.74-8.84-.04-.05-.18-1.04-.31-1.92-.04-.38-.13-.71-.18-1.04l-.09-.6h.04c-.18-1.48-.27-2.86-.31-4.39v-.44c-.04-.88-.53-1.59-1.29-1.81-.93-.27-1.96-.44-3.2-.44h-.4c-.76,0-1.6.49-2.09,1.26-.36.44-.53.99-.49,1.48.09.99.04,1.92,0,2.91-.04.77-.04,1.54-.04,2.31.04.44.04.88.09,1.32.04.66.09,1.26.09,1.87,0,1.1-.89,2.09-1.82,2.09h-.13c-.76-.11-1.29-.38-1.56-.82-.18-.27-.18-.71-.09-1.21.31-1.54.22-3.13.13-4.67-.04-.71-.09-1.43-.09-2.14v-3.13c0-2.03.04-4.17-.04-6.26C.07,8.73.07,7.69.02,6.64v-2.14C-.02,3.35-.02,2.25.29,1.15.51.33.87,0,1.58,0c.22,0,.45.05.76.11.93.16,1.2.55,1.2,1.59-.09,2.09-.04,4.12-.04,6.43.04,1.7,1.02,2.86,2.4,2.86h.4c.04-.05.13-.05.22-.05.27,0,.53.11.85.16.31.05.58.11.89.11,1.69,0,2.85-1.43,2.94-3.68,0-.16.04-.33.04-.49,0-.22.04-.44.04-.71,0-.33,0-.66.04-.99,0-.88.04-1.81-.04-2.69-.18-1.37.13-2.14,1.02-2.47.18-.05.36-.11.53-.11.76,0,1.42.6,1.69,1.54Z" class="cls-1"></path></g></svg>